<mxfile host="app.diagrams.net" modified="2023-05-31T02:43:10.399Z" agent="Mozilla/5.0 (Macintosh; Intel Mac OS X 10_15_7) AppleWebKit/537.36 (KHTML, like Gecko) Chrome/113.0.0.0 Safari/537.36" etag="8o8NVhwwHuYmOVkmCYPf" version="21.3.2" type="device">
  <diagram id="LK-0TniJnPmTPbg9B0nA" name="Страница 1">
    <mxGraphModel dx="1766" dy="537" grid="1" gridSize="10" guides="1" tooltips="1" connect="1" arrows="1" fold="1" page="1" pageScale="1" pageWidth="827" pageHeight="1169" math="0" shadow="0">
      <root>
        <mxCell id="0" />
        <mxCell id="1" parent="0" />
        <mxCell id="XNtYGRzQPcBkEEeZXjsn-1" value="" style="html=1;dropTarget=0;" parent="1" vertex="1">
          <mxGeometry x="-90" y="360" width="390" height="120" as="geometry" />
        </mxCell>
        <mxCell id="XNtYGRzQPcBkEEeZXjsn-2" value="" style="shape=module;jettyWidth=8;jettyHeight=4;" parent="XNtYGRzQPcBkEEeZXjsn-1" vertex="1">
          <mxGeometry x="1" width="11" height="20" relative="1" as="geometry">
            <mxPoint x="-18" y="7" as="offset" />
          </mxGeometry>
        </mxCell>
        <mxCell id="XNtYGRzQPcBkEEeZXjsn-3" value="" style="line;strokeWidth=1;fillColor=none;align=left;verticalAlign=middle;spacingTop=-1;spacingLeft=3;spacingRight=3;rotatable=0;labelPosition=right;points=[];portConstraint=eastwest;strokeColor=inherit;" parent="1" vertex="1">
          <mxGeometry x="-90" y="390" width="390" height="8" as="geometry" />
        </mxCell>
        <mxCell id="XNtYGRzQPcBkEEeZXjsn-4" value="Клиент" style="text;html=1;strokeColor=none;fillColor=none;align=center;verticalAlign=middle;whiteSpace=wrap;rounded=0;" parent="1" vertex="1">
          <mxGeometry x="70" y="368" width="60" height="30" as="geometry" />
        </mxCell>
        <mxCell id="XNtYGRzQPcBkEEeZXjsn-5" value="index.html" style="shape=module;align=left;spacingLeft=20;align=center;verticalAlign=top;" parent="1" vertex="1">
          <mxGeometry x="-70" y="585" width="330" height="50" as="geometry" />
        </mxCell>
        <mxCell id="XNtYGRzQPcBkEEeZXjsn-10" value="" style="html=1;dropTarget=0;" parent="1" vertex="1">
          <mxGeometry x="380" y="360" width="180" height="120" as="geometry" />
        </mxCell>
        <mxCell id="XNtYGRzQPcBkEEeZXjsn-11" value="" style="shape=module;jettyWidth=8;jettyHeight=4;" parent="XNtYGRzQPcBkEEeZXjsn-10" vertex="1">
          <mxGeometry x="1" width="11" height="20" relative="1" as="geometry">
            <mxPoint x="-18" y="7" as="offset" />
          </mxGeometry>
        </mxCell>
        <mxCell id="XNtYGRzQPcBkEEeZXjsn-12" value="" style="line;strokeWidth=1;fillColor=none;align=left;verticalAlign=middle;spacingTop=-1;spacingLeft=3;spacingRight=3;rotatable=0;labelPosition=right;points=[];portConstraint=eastwest;strokeColor=inherit;" parent="1" vertex="1">
          <mxGeometry x="380" y="390" width="180" height="8" as="geometry" />
        </mxCell>
        <mxCell id="XNtYGRzQPcBkEEeZXjsn-13" value="Сервер" style="text;html=1;strokeColor=none;fillColor=none;align=center;verticalAlign=middle;whiteSpace=wrap;rounded=0;" parent="1" vertex="1">
          <mxGeometry x="440" y="368" width="60" height="30" as="geometry" />
        </mxCell>
        <mxCell id="XNtYGRzQPcBkEEeZXjsn-14" value="" style="endArrow=block;dashed=1;endFill=0;endSize=12;html=1;rounded=0;entryX=0.5;entryY=1;entryDx=0;entryDy=0;" parent="1" target="XNtYGRzQPcBkEEeZXjsn-10" edge="1">
          <mxGeometry width="160" relative="1" as="geometry">
            <mxPoint x="470" y="580" as="sourcePoint" />
            <mxPoint x="580" y="690" as="targetPoint" />
          </mxGeometry>
        </mxCell>
        <mxCell id="XNtYGRzQPcBkEEeZXjsn-15" value="Начальник&#xa; отдела" style="shape=module;align=left;spacingLeft=20;align=center;verticalAlign=top;" parent="1" vertex="1">
          <mxGeometry x="-80" y="410" width="120" height="50" as="geometry" />
        </mxCell>
        <mxCell id="XNtYGRzQPcBkEEeZXjsn-16" value="Клиент" style="shape=module;align=left;spacingLeft=20;align=center;verticalAlign=top;" parent="1" vertex="1">
          <mxGeometry x="170" y="410" width="100" height="50" as="geometry" />
        </mxCell>
        <mxCell id="XNtYGRzQPcBkEEeZXjsn-17" value="" style="rounded=0;orthogonalLoop=1;jettySize=auto;html=1;endArrow=none;endFill=0;sketch=0;sourcePerimeterSpacing=0;targetPerimeterSpacing=0;" parent="1" target="XNtYGRzQPcBkEEeZXjsn-19" edge="1">
          <mxGeometry relative="1" as="geometry">
            <mxPoint x="-20" y="580" as="sourcePoint" />
          </mxGeometry>
        </mxCell>
        <mxCell id="XNtYGRzQPcBkEEeZXjsn-18" value="" style="rounded=0;orthogonalLoop=1;jettySize=auto;html=1;endArrow=halfCircle;endFill=0;entryX=0.5;entryY=0.5;endSize=6;strokeWidth=1;sketch=0;exitX=0.5;exitY=1;exitDx=0;exitDy=0;" parent="1" source="XNtYGRzQPcBkEEeZXjsn-15" target="XNtYGRzQPcBkEEeZXjsn-19" edge="1">
          <mxGeometry relative="1" as="geometry">
            <mxPoint x="170" y="535" as="sourcePoint" />
          </mxGeometry>
        </mxCell>
        <mxCell id="XNtYGRzQPcBkEEeZXjsn-19" value="" style="ellipse;whiteSpace=wrap;html=1;align=center;aspect=fixed;resizable=0;points=[];outlineConnect=0;sketch=0;" parent="1" vertex="1">
          <mxGeometry x="-25" y="525" width="10" height="10" as="geometry" />
        </mxCell>
        <mxCell id="XNtYGRzQPcBkEEeZXjsn-20" value="" style="rounded=0;orthogonalLoop=1;jettySize=auto;html=1;endArrow=none;endFill=0;sketch=0;sourcePerimeterSpacing=0;targetPerimeterSpacing=0;" parent="1" target="XNtYGRzQPcBkEEeZXjsn-22" edge="1">
          <mxGeometry relative="1" as="geometry">
            <mxPoint x="220" y="580" as="sourcePoint" />
          </mxGeometry>
        </mxCell>
        <mxCell id="XNtYGRzQPcBkEEeZXjsn-21" value="" style="rounded=0;orthogonalLoop=1;jettySize=auto;html=1;endArrow=halfCircle;endFill=0;entryX=0.5;entryY=0.5;endSize=6;strokeWidth=1;sketch=0;exitX=0.5;exitY=1;exitDx=0;exitDy=0;" parent="1" source="XNtYGRzQPcBkEEeZXjsn-16" target="XNtYGRzQPcBkEEeZXjsn-22" edge="1">
          <mxGeometry relative="1" as="geometry">
            <mxPoint x="260" y="535" as="sourcePoint" />
          </mxGeometry>
        </mxCell>
        <mxCell id="XNtYGRzQPcBkEEeZXjsn-22" value="" style="ellipse;whiteSpace=wrap;html=1;align=center;aspect=fixed;resizable=0;points=[];outlineConnect=0;sketch=0;" parent="1" vertex="1">
          <mxGeometry x="215" y="530" width="10" height="10" as="geometry" />
        </mxCell>
        <mxCell id="XNtYGRzQPcBkEEeZXjsn-23" value="Меню &lt;br&gt;клиента" style="text;html=1;align=center;verticalAlign=middle;resizable=0;points=[];autosize=1;strokeColor=none;fillColor=none;" parent="1" vertex="1">
          <mxGeometry x="225" y="510" width="70" height="40" as="geometry" />
        </mxCell>
        <mxCell id="XNtYGRzQPcBkEEeZXjsn-24" value="Меню&lt;br&gt;Начальника отдела" style="text;html=1;align=center;verticalAlign=middle;resizable=0;points=[];autosize=1;strokeColor=none;fillColor=none;" parent="1" vertex="1">
          <mxGeometry x="-180" y="510" width="140" height="40" as="geometry" />
        </mxCell>
        <mxCell id="XNtYGRzQPcBkEEeZXjsn-25" value="index.js" style="shape=module;align=left;spacingLeft=20;align=center;verticalAlign=top;" parent="1" vertex="1">
          <mxGeometry x="370" y="585" width="195" height="50" as="geometry" />
        </mxCell>
        <mxCell id="XNtYGRzQPcBkEEeZXjsn-26" value="" style="endArrow=none;html=1;rounded=0;entryX=0.051;entryY=0.49;entryDx=0;entryDy=0;entryPerimeter=0;exitX=1;exitY=0.5;exitDx=0;exitDy=0;" parent="1" source="XNtYGRzQPcBkEEeZXjsn-5" target="XNtYGRzQPcBkEEeZXjsn-25" edge="1">
          <mxGeometry relative="1" as="geometry">
            <mxPoint x="230" y="670" as="sourcePoint" />
            <mxPoint x="390" y="670" as="targetPoint" />
          </mxGeometry>
        </mxCell>
        <mxCell id="XNtYGRzQPcBkEEeZXjsn-28" value="" style="endArrow=none;html=1;rounded=0;exitX=1;exitY=0.5;exitDx=0;exitDy=0;" parent="1" edge="1">
          <mxGeometry relative="1" as="geometry">
            <mxPoint x="565" y="610" as="sourcePoint" />
            <mxPoint x="642" y="610" as="targetPoint" />
          </mxGeometry>
        </mxCell>
        <mxCell id="XNtYGRzQPcBkEEeZXjsn-29" value=".env" style="shape=module;align=left;spacingLeft=20;align=center;verticalAlign=top;" parent="1" vertex="1">
          <mxGeometry x="390" y="410" width="140" height="50" as="geometry" />
        </mxCell>
        <mxCell id="NAs-T7RVeWdWrYlQVbap-1" value="Администратор" style="shape=module;align=left;spacingLeft=20;align=center;verticalAlign=top;" parent="1" vertex="1">
          <mxGeometry x="45" y="410" width="120" height="50" as="geometry" />
        </mxCell>
        <mxCell id="NAs-T7RVeWdWrYlQVbap-2" value="" style="rounded=0;orthogonalLoop=1;jettySize=auto;html=1;endArrow=none;endFill=0;sketch=0;sourcePerimeterSpacing=0;targetPerimeterSpacing=0;" parent="1" target="NAs-T7RVeWdWrYlQVbap-4" edge="1">
          <mxGeometry relative="1" as="geometry">
            <mxPoint x="105" y="580" as="sourcePoint" />
          </mxGeometry>
        </mxCell>
        <mxCell id="NAs-T7RVeWdWrYlQVbap-3" value="" style="rounded=0;orthogonalLoop=1;jettySize=auto;html=1;endArrow=halfCircle;endFill=0;entryX=0.5;entryY=0.5;endSize=6;strokeWidth=1;sketch=0;exitX=0.5;exitY=1;exitDx=0;exitDy=0;" parent="1" source="NAs-T7RVeWdWrYlQVbap-1" target="NAs-T7RVeWdWrYlQVbap-4" edge="1">
          <mxGeometry relative="1" as="geometry">
            <mxPoint x="295" y="535" as="sourcePoint" />
          </mxGeometry>
        </mxCell>
        <mxCell id="NAs-T7RVeWdWrYlQVbap-4" value="" style="ellipse;whiteSpace=wrap;html=1;align=center;aspect=fixed;resizable=0;points=[];outlineConnect=0;sketch=0;" parent="1" vertex="1">
          <mxGeometry x="100" y="525" width="10" height="10" as="geometry" />
        </mxCell>
        <mxCell id="NAs-T7RVeWdWrYlQVbap-5" value="Меню &lt;br&gt;администратора" style="text;html=1;align=center;verticalAlign=middle;resizable=0;points=[];autosize=1;strokeColor=none;fillColor=none;" parent="1" vertex="1">
          <mxGeometry x="-10" y="510" width="120" height="40" as="geometry" />
        </mxCell>
        <mxCell id="NAs-T7RVeWdWrYlQVbap-6" value="" style="html=1;dropTarget=0;" parent="1" vertex="1">
          <mxGeometry x="640" y="550" width="180" height="120" as="geometry" />
        </mxCell>
        <mxCell id="NAs-T7RVeWdWrYlQVbap-7" value="" style="shape=module;jettyWidth=8;jettyHeight=4;" parent="NAs-T7RVeWdWrYlQVbap-6" vertex="1">
          <mxGeometry x="1" width="11" height="20" relative="1" as="geometry">
            <mxPoint x="-18" y="7" as="offset" />
          </mxGeometry>
        </mxCell>
        <mxCell id="NAs-T7RVeWdWrYlQVbap-8" value="" style="line;strokeWidth=1;fillColor=none;align=left;verticalAlign=middle;spacingTop=-1;spacingLeft=3;spacingRight=3;rotatable=0;labelPosition=right;points=[];portConstraint=eastwest;strokeColor=inherit;" parent="1" vertex="1">
          <mxGeometry x="640" y="580" width="180" height="8" as="geometry" />
        </mxCell>
        <mxCell id="NAs-T7RVeWdWrYlQVbap-9" value="БД" style="text;html=1;strokeColor=none;fillColor=none;align=center;verticalAlign=middle;whiteSpace=wrap;rounded=0;" parent="1" vertex="1">
          <mxGeometry x="700" y="558" width="60" height="30" as="geometry" />
        </mxCell>
        <mxCell id="NAs-T7RVeWdWrYlQVbap-10" value="myCompany" style="shape=module;align=left;spacingLeft=20;align=center;verticalAlign=top;" parent="1" vertex="1">
          <mxGeometry x="650" y="600" width="140" height="50" as="geometry" />
        </mxCell>
      </root>
    </mxGraphModel>
  </diagram>
</mxfile>
